PathFileType	4	(X/Y/Z)	Patient4_TMGait_0pt6_01_right_02.trc.trc
DataRate	CameraRate	NumFrames	NumMarkers	Units	OrigDataRate	OrigDataStartFrame	OrigNumFrames
82.840236686391	82.840236686391	5	33	mm	82.840236686391	36	       141
Frame#	Time	Sacral			L.Shoulder			Chest			R.Shoulder			Neck			R.ASIS			L.ASIS			R.Thigh.Superior			R.Thigh.Lateral			R.Thigh.Inferior			R.Patella			L.Thigh.Superior			L.Thigh.Lateral			L.Thigh.Inferior			L.Patella			L.Shank.Superior			L.Shank.Lateral			L.Shank.Inferior			R.Shank.Superior			R.Shank.Lateral			R.Shank.Inferior			R.Heel			R.Midfoot.Superior			R.Midfoot.Lateral			R.Toe			L.Heel			L.Midfoot.Lateral			L.Midfoot.Superior			L.Toe			L.Elbow			L.Wrist			R.Elbow			R.Wrist			
		X1	Y1	Z1	X2	Y2	Z2	X3	Y3	Z3	X4	Y4	Z4	X5	Y5	Z5	X6	Y6	Z6	X7	Y7	Z7	X8	Y8	Z8	X9	Y9	Z9	X10	Y10	Z10	X11	Y11	Z11	X12	Y12	Z12	X13	Y13	Z13	X14	Y14	Z14	X15	Y15	Z15	X16	Y16	Z16	X17	Y17	Z17	X18	Y18	Z18	X19	Y19	Z19	X20	Y20	Z20	X21	Y21	Z21	X22	Y22	Z22	X23	Y23	Z23	X24	Y24	Z24	X25	Y25	Z25	X26	Y26	Z26	X27	Y27	Z27	X28	Y28	Z28	X29	Y29	Z29	X30	Y30	Z30	X31	Y31	Z31	X32	Y32	Z32	X33	Y33	Z33	

36	2.222500000000	598.613843782414	993.890292417469	455.021324199799	751.573952646195	1428.743529011515	274.224664785585	860.498396102397	1362.665480233538	432.217550690025	777.510284780239	1429.522101644635	608.342518210042	736.742437607846	1487.483211374974	431.070125299816	831.771670504970	932.474936673569	564.753726049124	808.489541200281	956.930544895506	290.855414310058	896.238344231946	749.928313383707	529.249709688232	834.282305397058	630.810349808216	593.363683157821	917.832184113213	589.343087979386	512.379815855713	931.597639469526	498.741451246915	520.147924473640	831.757042178912	730.860773855017	311.231754518742	726.677751236766	624.419780790946	255.636145771871	806.545169159053	533.696256998307	308.777007740223	793.936186606237	451.562672527301	308.681660193508	730.836405328574	393.511341604427	307.509650377167	593.086785577554	334.250437761921	268.867018131710	598.242223779392	206.904033719687	328.933126353078	906.235860405681	407.594128037989	528.347046029480	839.201762471091	300.625809246841	589.996171523265	887.563878314577	207.942016597733	528.266630276073	761.128781015621	39.765124132118	495.495358166601	929.898030559385	97.551464838751	534.383395283677	842.336524082882	36.047199282723	572.831948497603	1049.705687353976	48.766044037118	566.936667561392	422.644147469954	108.904720241835	383.664695737710	480.914047397145	77.302315913242	298.245572477217	581.224321686077	110.792122473948	310.537992120976	679.794185732012	33.469042352111	274.624755515718	784.073415631190	1077.658915035285	151.749881847631	974.622995343215	899.575275833884	142.706896951462	700.113120505744	1089.917079477240	721.799802444416	738.363971651135	831.163589444353	728.124270158470	
37	2.234571428571	599.041280082102	994.792865675661	458.026418704407	749.888098480115	1430.158911781553	277.146606202874	860.420703264311	1363.841437995410	434.001352661454	778.959991539343	1430.130824732717	610.997385251795	736.726405636676	1488.495422743353	434.162591126918	832.887513335191	933.671359492106	566.370038489581	808.067426059960	957.882075245856	292.713120347799	895.267193093636	748.977484929962	532.178310174555	831.352543214133	630.954865701053	595.374498711835	914.389117347982	588.571690391671	514.357665021816	926.989617672269	498.015465775314	521.773034724719	837.021281393613	733.176452236585	313.289544553589	736.318576134405	624.089886860166	256.585030551394	818.924470530797	534.974221593491	309.699208960777	807.219498064499	451.474913319935	308.808997272626	741.702987710931	393.729199821625	307.866533453367	601.744960359739	339.881145829136	269.118067238722	601.988626877443	212.501391078424	329.023004700002	901.113096209506	407.099533637061	529.822417684530	833.395309689845	300.348434288161	591.088506685830	881.200423800344	207.597791695196	529.044865541334	754.082596911099	39.744975917347	495.665847422789	922.938786036516	97.418169515647	534.723783677099	835.256045946037	35.988540675619	573.031064049290	1042.679346995080	48.634154478250	567.127019282259	422.284576571357	123.535153160894	383.441171880662	478.761195018845	88.364724320799	298.114681163298	580.880243671435	116.044279438727	310.185417189289	674.063402055915	32.911828432895	274.623681043959	778.754878209673	1078.170089596343	156.073577801390	960.029670142545	890.427300483993	145.194388851013	709.155357421998	1088.297772318115	724.629528230131	757.525639717738	831.220817905425	729.622409342489	
38	2.246642857143	599.258008299207	995.709591426098	460.888042978940	748.069319968183	1431.508167304431	279.955330582496	860.272597877451	1364.930290384963	435.608205853292	780.439440859396	1430.661596749182	613.520337205487	736.679911630392	1489.463145821480	437.144493377877	833.785158919899	934.867957522278	567.919434975466	807.436209595021	958.730502971334	294.499323958549	893.961899087599	747.953948369478	535.244043445741	827.976529687741	631.057563227094	597.407803366955	910.552027871689	587.771489316321	516.420492098183	921.933856318134	497.310916433493	523.463653488894	842.280052354259	735.789559715862	315.394221652525	746.211077040643	624.127192983536	257.377311847867	831.402295925912	536.793474401206	310.664806223798	820.768926492265	452.014327553186	309.077850512743	753.114807851656	394.450060755816	308.253809846012	611.209954779062	345.822893547888	269.393258792540	606.741992406634	218.587029368689	329.253490598757	895.627138647980	406.641373204344	531.332385818654	827.315625283913	300.054084718552	592.177798679211	874.662984632612	207.289842985357	529.834513441845	746.998622771131	39.747692698792	495.834033745883	915.956940308177	97.305802548476	535.082662133842	828.143149616952	35.935210717946	573.230187825295	1035.618908465962	48.438926179145	567.316942366422	423.364850949632	138.449970502453	383.409257744477	478.005413872610	100.069067954624	298.095306829823	581.712418574377	121.963448808855	310.056615174720	669.522166740057	32.686710821206	274.601617871449	772.964790624031	1078.614836465776	160.265461968592	944.455986598957	881.702124408810	147.729692156343	718.481068573969	1086.755753517605	727.379708367973	777.383975668413	831.882679460727	730.948316911688	
39	2.258714285714	599.262754051606	996.623318526503	463.594663128166	746.188439097955	1432.758261887986	282.615080010152	860.077513515443	1365.897876959107	437.029508800173	781.942230276595	1431.106899702742	615.882102129554	736.625685354492	1490.370799136525	439.971049632159	834.462292559474	936.043138330230	569.418569148616	806.624177734955	959.463149053916	296.215366897059	892.374145201971	746.924840115651	538.322426888994	824.310540491660	631.141294502790	599.412267141876	906.451639256054	586.976097888972	518.497731572695	916.567508596122	496.641968222872	525.162364279194	847.389378350419	738.698547532473	317.530937781198	756.107451098275	624.605068554575	258.035356121924	843.711236557447	539.196537110865	311.639576049382	834.343904539408	453.232369697025	309.413205702595	764.869037265701	395.712482341676	308.627717171098	621.287706782534	351.914122533976	269.719568244584	612.524802932493	224.930959041291	329.604953427574	889.899546189242	406.220328012191	532.824756667734	821.070595972455	299.766492363361	593.239115442486	868.009590996366	207.012702334575	530.603979673618	739.860505943911	39.773805280022	496.007531697510	908.935228495778	97.209046508852	535.445727873899	820.984874271862	35.891945796467	573.435241262369	1028.512018159914	48.183353947032	567.509052157014	426.017944280755	152.967020190949	383.596844895189	478.878225142933	111.856349875283	298.212709011337	583.902744721213	128.306622231748	310.139775829495	666.630013276841	32.898276347302	274.545762781292	766.672015069028	1078.967462337414	164.283460098107	928.005089447238	873.510293790249	150.323108044792	728.088731874206	1085.302277884215	730.012816194395	797.835401687996	833.192669286938	732.063299308347	
40	2.270785714286	599.067395998530	997.525051795417	466.149024477442	744.313215346883	1433.892509783427	285.097303782320	859.855840669840	1366.730689525279	438.266155873116	783.457617897664	1431.479332105359	618.059784518241	736.581867480936	1491.215781015441	442.601574905860	834.928590679805	937.178566037216	570.882004637092	805.666662893833	960.091078430977	297.868245977266	890.550100687751	745.944031645602	541.295481101091	820.480810278171	631.222933264122	601.340045137515	902.187458377996	586.206390987246	520.519489215034	911.001086285312	496.016717088135	526.806895173239	852.228740146850	741.896668138925	319.675156696345	765.774194855205	625.576214111220	258.584486867310	855.625379344452	542.203355675357	312.567620404643	847.729128085083	455.158949115408	309.720347232630	776.787111766423	397.530297893861	308.931435882815	631.802835231639	357.954155228039	270.100726946422	619.380059029308	231.252642489888	330.032997711931	884.027350957674	405.835912040450	534.249539148651	814.740523207838	299.504545480862	594.238814938263	861.289098428141	206.762606087935	531.325221188622	732.664345143484	39.820759817707	496.189498441425	901.865778912656	97.123805332884	535.799009083443	813.778815407196	35.861556699977	573.646328528635	1021.356201685699	47.882080500694	567.704147086308	430.364448274267	166.363110582849	384.004178170944	481.601826674145	123.089476587770	298.472137793269	587.653588179352	134.748095995562	310.391681885744	665.872891460442	33.610551776763	274.441598356620	759.860083831083	1079.230386738053	168.096302172839	910.790110680813	865.944815630197	152.984234218820	737.977076823902	1083.970612806712	732.493370845092	818.774218079997	835.204690551257	732.921836855955	
